# xmcd
#
# Track frame offsets:
#	150
#	12910
#	26127
#	49615
#	64002
#	79412
#	93355
#	107472
#	122435
#	132322
#
# Disc length: 1883 seconds
# Revision: 0
# Processed by: cddbd v1.5.2PL0 Copyright (c) Steve Scherf et al.
# Submitted via: dBpowerAMP V12.0
#
DISCID=7907590a
DTITLE=Dillard/Haynes Band - There Goes The Neighborhood
DYEAR=2000
DGENRE=Bluegrass
TTITLE0=There Goes The Nighborhood
TTITLE1=Wicker Rockin' Chair
TTITLE2=Talkin' Out Of His Heart
TTITLE3=Dooley
TTITLE4=I Shall Not Be Moved
TTITLE5=A Satisfied Mind
TTITLE6=I've Had All The Good Times
TTITLE7=I'll Be Coming Home
TTITLE8=We Can Work It Out
TTITLE9=Finger Pickin' Good
EXTD=
EXTT0=
EXTT1=
EXTT2=
EXTT3=
EXTT4=
EXTT5=
EXTT6=
EXTT7=
EXTT8=
EXTT9=
PLAYORDER=
